<svg xmlns="http://www.w3.org/2000/svg" viewBox="0 0 48 48"><defs><style>.cls-1{fill:#333;}.cls-2{fill:#b3b3b3;}</style></defs><g id="Draw_Layer" data-name="Draw Layer"><path class="cls-1" d="M21.77,27.54l-1.92-8.77a3.22,3.22,0,0,0-3.16-2.54H8.85a3.23,3.23,0,0,0-3.16,2.54L3.78,27.54a3.23,3.23,0,0,0,3.16,3.92h.37V39.9a3,3,0,0,0,3,3h5a3,3,0,0,0,3-3V31.46h.37A3.24,3.24,0,0,0,21.77,27.54Z"/><circle class="cls-1" cx="12.77" cy="10.26" r="5.11"/><path class="cls-2" d="M44.22,27.54l-1.91-8.77a3.23,3.23,0,0,0-3.16-2.54H31.31a3.22,3.22,0,0,0-3.16,2.54l-1.92,8.77a3.24,3.24,0,0,0,3.16,3.92h.37V39.9a3,3,0,0,0,3,3h5a3,3,0,0,0,2.95-3V31.46h.37A3.23,3.23,0,0,0,44.22,27.54Z"/><circle class="cls-2" cx="35.23" cy="10.26" r="5.11"/></g></svg>
