<svg xmlns="http://www.w3.org/2000/svg" viewBox="0 0 48 48"><defs><style>.cls-1{fill:#b3b3b3;}.cls-2{fill:#333;}</style></defs><g id="Draw_Layer" data-name="Draw Layer"><path class="cls-1" d="M16.47,37.42l-1.07-4.9a1.83,1.83,0,0,0-1.77-1.43H9.24a1.82,1.82,0,0,0-1.77,1.43L6.4,37.42a1.81,1.81,0,0,0,1.77,2.2h.21v4.72A1.65,1.65,0,0,0,10,46h2.81a1.65,1.65,0,0,0,1.65-1.66V39.62h.21A1.82,1.82,0,0,0,16.47,37.42Z"/><circle class="cls-1" cx="11.43" cy="27.75" r="2.86"/><path class="cls-1" d="M41.6,37.42l-1.07-4.9a1.82,1.82,0,0,0-1.77-1.43H34.37a1.83,1.83,0,0,0-1.77,1.43l-1.07,4.9a1.82,1.82,0,0,0,1.77,2.2h.21v4.72A1.65,1.65,0,0,0,35.16,46H38a1.65,1.65,0,0,0,1.65-1.66V39.62h.21A1.81,1.81,0,0,0,41.6,37.42Z"/><circle class="cls-1" cx="36.57" cy="27.75" r="2.86"/><path class="cls-1" d="M29,37.42,28,32.52a1.82,1.82,0,0,0-1.77-1.43H21.81A1.82,1.82,0,0,0,20,32.52L19,37.42a1.81,1.81,0,0,0,1.77,2.2h.2v4.72A1.66,1.66,0,0,0,22.6,46h2.8a1.66,1.66,0,0,0,1.66-1.66V39.62h.2A1.81,1.81,0,0,0,29,37.42Z"/><circle class="cls-1" cx="24" cy="27.75" r="2.86"/><path class="cls-2" d="M22.75,14.53l-1.07-4.9A1.82,1.82,0,0,0,19.91,8.2H15.52a1.81,1.81,0,0,0-1.76,1.43l-1.08,4.9a1.82,1.82,0,0,0,1.77,2.2h.21v4.72a1.65,1.65,0,0,0,1.65,1.66h2.81a1.66,1.66,0,0,0,1.66-1.66V16.73H21A1.81,1.81,0,0,0,22.75,14.53Z"/><circle class="cls-2" cx="17.72" cy="4.86" r="2.86"/><path class="cls-2" d="M35.32,14.53l-1.08-4.9A1.81,1.81,0,0,0,32.48,8.2H28.09a1.82,1.82,0,0,0-1.77,1.43l-1.07,4.9A1.81,1.81,0,0,0,27,16.73h.2v4.72a1.66,1.66,0,0,0,1.66,1.66h2.81a1.65,1.65,0,0,0,1.65-1.66V16.73h.21A1.82,1.82,0,0,0,35.32,14.53Z"/><circle class="cls-2" cx="30.28" cy="4.86" r="2.86"/></g></svg>
