<svg xmlns="http://www.w3.org/2000/svg" viewBox="0 0 48 48"><defs><style>.cls-1{fill:#333;}.cls-2{fill:#fff;}.cls-3{fill:#b3b3b3;}</style></defs><g id="Draw_Layer" data-name="Draw Layer"><rect class="cls-1" x="19.6" y="2.33" width="8.8" height="22"/><rect class="cls-1" x="29.28" y="11.13" width="8.8" height="13.2"/><rect class="cls-1" x="9.92" y="6.73" width="8.8" height="17.6"/><path class="cls-2" d="M32.54,19.21a1.82,1.82,0,0,0,.14.75,1,1,0,0,0,1,.54,1.07,1.07,0,0,0,.75-.3,1.12,1.12,0,0,0,.32-.85,1,1,0,0,0-.6-1,3,3,0,0,0-1.06-.14v-1a2.73,2.73,0,0,0,1-.14.84.84,0,0,0,.49-.87,1,1,0,0,0-.25-.7.9.9,0,0,0-.7-.27.87.87,0,0,0-.76.33,1.41,1.41,0,0,0-.24.88H31.23a3.62,3.62,0,0,1,.19-1,2.22,2.22,0,0,1,.57-.81,2,2,0,0,1,.68-.41,3.08,3.08,0,0,1,1-.13,2.58,2.58,0,0,1,1.73.55A1.85,1.85,0,0,1,36,16a1.64,1.64,0,0,1-.39,1.11,1.39,1.39,0,0,1-.52.39,1,1,0,0,1,.58.34,1.88,1.88,0,0,1,.56,1.43A2.44,2.44,0,0,1,35.61,21a2.55,2.55,0,0,1-2,.71,2.34,2.34,0,0,1-2.2-1,3,3,0,0,1-.36-1.45Z"/><path class="cls-2" d="M12.11,20.22a4.13,4.13,0,0,1,1.48-1.58,10.44,10.44,0,0,0,1.32-1,1.57,1.57,0,0,0,.45-1.07,1.16,1.16,0,0,0-.26-.79.92.92,0,0,0-.75-.32.92.92,0,0,0-.91.5,2.42,2.42,0,0,0-.17.92H11.84a3.61,3.61,0,0,1,.35-1.54,2.15,2.15,0,0,1,2.09-1.12,2.65,2.65,0,0,1,1.89.66,2.3,2.3,0,0,1,.7,1.74,2.35,2.35,0,0,1-.5,1.47,4.57,4.57,0,0,1-1.07,1l-.58.42c-.37.26-.63.45-.76.56a1.65,1.65,0,0,0-.34.41h3.26v1.29H11.76A3.46,3.46,0,0,1,12.11,20.22Z"/><path class="cls-2" d="M21.62,16.54v-1a6.39,6.39,0,0,0,1-.1,1.34,1.34,0,0,0,.72-.39,1.41,1.41,0,0,0,.29-.53,1.8,1.8,0,0,0,0-.3h1.23v7.47H23.37V16.54Z"/><path class="cls-1" d="M22.81,37.51l-1-4.66a1.72,1.72,0,0,0-1.68-1.36H15.94a1.72,1.72,0,0,0-1.68,1.36l-1,4.66a1.72,1.72,0,0,0,1.68,2.09h.2v4.49a1.57,1.57,0,0,0,1.57,1.58h2.67a1.57,1.57,0,0,0,1.57-1.58V39.6h.2A1.72,1.72,0,0,0,22.81,37.51Z"/><circle class="cls-1" cx="18.02" cy="28.32" r="2.72"/><path class="cls-3" d="M34.76,37.51l-1-4.66a1.72,1.72,0,0,0-1.68-1.36H27.89a1.72,1.72,0,0,0-1.68,1.36l-1,4.66a1.72,1.72,0,0,0,1.68,2.09h.2v4.49a1.57,1.57,0,0,0,1.57,1.58h2.67a1.57,1.57,0,0,0,1.57-1.58V39.6h.2A1.72,1.72,0,0,0,34.76,37.51Z"/><circle class="cls-3" cx="29.98" cy="28.32" r="2.72"/></g></svg>
