<svg xmlns="http://www.w3.org/2000/svg" viewBox="0 0 48 48"><defs><style>.cls-1{fill:#b3b3b3;}.cls-2,.cls-3{fill:none;stroke:#333;stroke-linecap:round;stroke-miterlimit:10;stroke-width:1.5px;}.cls-3{stroke-dasharray:4.27 4.27;}</style></defs><g id="Draw_Layer" data-name="Draw Layer"><path class="cls-1" d="M1.48,38.14c1.5-1.33,2.77-3.39,4-4.67A55.16,55.16,0,0,0,10,28c3.42-4.62,6.75-9.3,10.1-14a12.68,12.68,0,0,1,4.18-4.22,7.48,7.48,0,0,1,7.57.86c2.47,1.69,4,4.5,5.62,7,1.78,2.72,3.43,5.54,4.94,8.43a42.74,42.74,0,0,1,3.37,8.23,33.73,33.73,0,0,1,.9,4.13.45.45,0,0,1-.44.5H1.78A.44.44,0,0,1,1.48,38.14Z"/><line class="cls-2" x1="27.17" y1="2.77" x2="27.17" y2="4.77"/><line class="cls-3" x1="27.17" y1="9.05" x2="27.17" y2="41.09"/><line class="cls-2" x1="27.17" y1="43.23" x2="27.17" y2="45.23"/></g></svg>
