<svg xmlns="http://www.w3.org/2000/svg" viewBox="0 0 48 48"><defs><style>.cls-1{fill:#333;}.cls-2{fill:#b3b3b3;}.cls-3{fill:none;stroke:#333;stroke-miterlimit:10;stroke-width:2px;}</style></defs><g id="Draw_Layer" data-name="Draw Layer"><path class="cls-1" d="M22.75,13.8,21.67,8.87a1.82,1.82,0,0,0-1.78-1.43h-4.4a1.84,1.84,0,0,0-1.78,1.43L12.64,13.8A1.81,1.81,0,0,0,14.41,16h.21v4.74a1.66,1.66,0,0,0,1.66,1.67H19.1a1.66,1.66,0,0,0,1.66-1.67V16H21A1.82,1.82,0,0,0,22.75,13.8Z"/><circle class="cls-1" cx="17.69" cy="4.09" r="2.87"/><path class="cls-2" d="M35.36,13.8,34.29,8.87a1.84,1.84,0,0,0-1.78-1.43h-4.4a1.82,1.82,0,0,0-1.78,1.43L25.25,13.8A1.82,1.82,0,0,0,27,16h.21v4.74a1.66,1.66,0,0,0,1.66,1.67h2.82a1.66,1.66,0,0,0,1.66-1.67V16h.21A1.81,1.81,0,0,0,35.36,13.8Z"/><circle class="cls-2" cx="30.31" cy="4.09" r="2.87"/><line class="cls-3" x1="7.47" y1="30.54" x2="34.01" y2="30.54"/><line class="cls-3" x1="20.74" y1="27.73" x2="20.74" y2="33.34"/><line class="cls-3" x1="7.93" y1="27.73" x2="7.93" y2="33.34"/><line class="cls-3" x1="34.01" y1="27.73" x2="34.01" y2="33.34"/><line class="cls-3" x1="27.26" y1="28.44" x2="27.26" y2="32.64"/><line class="cls-3" x1="13.99" y1="28.44" x2="13.99" y2="32.64"/><line class="cls-3" x1="13.99" y1="41.13" x2="40.53" y2="41.13"/><line class="cls-3" x1="13.99" y1="38.33" x2="13.99" y2="43.94"/><line class="cls-3" x1="33.78" y1="39.04" x2="33.78" y2="43.23"/><line class="cls-3" x1="20.74" y1="24.88" x2="20.74" y2="46.79"/><line class="cls-3" x1="27.26" y1="39.04" x2="27.26" y2="43.23"/><line class="cls-3" x1="40.53" y1="38.33" x2="40.53" y2="43.94"/></g></svg>
